<?xml version="1.0" standalone="no"?>
<!DOCTYPE svg PUBLIC "-//W3C//DTD SVG 20010904//EN"
 "http://www.w3.org/TR/2001/REC-SVG-20010904/DTD/svg10.dtd">
<svg version="1.0" xmlns="http://www.w3.org/2000/svg"
 width="133.000000pt" height="133.000000pt" viewBox="0 0 133.000000 133.000000"
 preserveAspectRatio="xMidYMid meet">

<g transform="translate(0.000000,133.000000) scale(0.100000,-0.100000)"
fill="#000000" stroke="none">
<path d="M530 1285 c-237 -53 -436 -254 -485 -490 -85 -405 244 -787 656 -762
260 16 479 184 566 433 24 69 27 94 27 199 0 105 -3 130 -27 198 -89 256 -311
422 -577 433 -61 2 -119 -2 -160 -11z m117 -227 c22 -21 23 -27 23 -187 0
-223 12 -211 -209 -211 -223 0 -211 -12 -211 209 0 223 -12 211 209 211 155 0
166 -1 188 -22z m313 -83 c0 -10 -10 -15 -30 -15 l-30 0 0 -95 c0 -88 -1 -95
-20 -95 -19 0 -20 7 -20 95 l0 95 -30 0 c-20 0 -30 5 -30 15 0 12 16 15 80 15
64 0 80 -3 80 -15z m105 -340 c24 -24 25 -27 25 -185 0 -219 9 -210 -210 -210
-158 0 -161 1 -185 25 -24 24 -25 27 -25 185 0 158 1 161 25 185 24 24 27 25
185 25 158 0 161 -1 185 -25z m-543 -105 c33 -29 33 -29 8 -29 -14 0 -34 6
-44 14 -46 35 -116 -4 -116 -65 0 -64 77 -103 120 -60 23 23 50 26 50 6 0 -27
-50 -56 -96 -56 -62 0 -104 39 -111 103 -5 43 -3 49 30 82 30 30 42 35 81 35
37 0 52 -6 78 -30z"/>
<path d="M397 972 c-35 -39 -7 -102 44 -102 9 0 27 -8 40 -19 20 -16 21 -21
10 -35 -17 -20 -60 -21 -67 -1 -8 19 -44 20 -44 1 0 -22 40 -46 75 -46 43 0
75 25 75 59 0 33 -22 54 -73 71 -30 9 -38 16 -35 33 4 27 55 37 64 13 7 -17
44 -22 44 -6 0 6 -9 19 -20 30 -26 26 -90 27 -113 2z"/>
<path d="M800 451 l0 -111 55 0 c61 0 108 19 125 49 19 37 12 107 -14 138 -21
24 -32 28 -95 31 l-71 4 0 -111z m137 53 c7 -10 13 -34 13 -54 0 -50 -18 -70
-68 -77 l-42 -6 0 83 0 83 42 -6 c23 -3 48 -14 55 -23z"/>
</g>
</svg>
