<?xml version="1.0" encoding="utf-8"?>
<!-- Generator: Adobe Illustrator 28.1.0, SVG Export Plug-In . SVG Version: 6.00 Build 0)  -->
<svg version="1.1" xmlns="http://www.w3.org/2000/svg" xmlns:xlink="http://www.w3.org/1999/xlink" x="0px" y="0px"
	 viewBox="0 0 290 100" style="enable-background:new 0 0 290 100;" xml:space="preserve">
<style type="text/css">
	.st0{stroke:#000000;stroke-miterlimit:10;}
</style>
<g id="Layer_1">
	<g>
		<polygon class="st0" points="215.4,30.5 215.3,30.5 206.6,18.2 204.3,18.2 204.2,34.9 206.8,34.9 206.8,22.6 206.9,22.6 
			215.6,34.9 218.1,34.9 218.1,18.2 215.4,18.2 		"/>
		<path class="st0" d="M165.9,18.2l-6.6,16.7h2.8l1.3-3.4h7.7l1.3,3.4h2.8l-6.6-16.7H165.9z M164.2,29.1l3-7.6h0.1l3,7.6H164.2z"/>
		<polygon class="st0" points="123.2,30.6 117.6,18.2 114.8,18.2 114.8,34.9 117.3,34.9 117.3,23.4 117.3,23.4 121.9,33.7 
			124.2,33.7 128.8,23.4 128.9,23.4 128.9,34.9 131.5,34.9 131.5,18.2 128.7,18.2 		"/>
		<path class="st0" d="M80.4,35.6c4.8,0,6.8-2.3,6.8-7.5v-9.3h-2.7v9.3c0,3.8-1,5.1-4,5.1c-3,0-4-1.3-4-5.1v-9.3h-2.9v9.3
			C73.6,33.3,75.6,35.6,80.4,35.6z"/>
		<polygon class="st0" points="85,71 76.7,71 76.7,64.1 74,64.1 74,80.8 76.7,80.8 76.7,73.5 85,73.5 85,80.8 87.7,80.8 87.7,64.1 
			85,64.1 		"/>
		<path class="st0" d="M121.8,64.2l-6.6,16.7h2.8l1.3-3.5h7.7l1.3,3.5h2.8l-6.6-16.7H121.8z M120.2,75.1l3-7.5h0.1l3,7.5H120.2z"/>
		<polygon class="st0" points="173.9,64.1 170.4,64.1 163,71.8 162.9,71.8 162.9,64.1 160.2,64.1 160.2,80.7 162.9,80.7 162.9,75.4 
			165.3,72.9 165.4,72.9 171,80.7 174.2,80.7 167.2,70.9 		"/>
		<path class="st0" d="M215.1,73.3c0,3.8-1,5.1-4,5.1s-4-1.3-4-5.1V64c0,0-2.8,0-2.9,0v9.3c0,5.2,2,7.5,6.8,7.5
			c4.8,0,6.8-2.3,6.8-7.5V64h-2.7V73.3z"/>
		<path class="st0" d="M258.5,74.2c1.9-0.8,3-2.4,3-4.8c0-3.5-2.1-5.3-5.9-5.3h-6.9v16.7h2.8v-6h3.8c0.3,0,0.6,0,0.8,0l3,6h2.9
			L258.5,74.2z M255.5,72.4h-4.1v-5.9h4.1c2.4,0,3.5,1,3.5,3C259,71.5,257.8,72.4,255.5,72.4z"/>
	</g>
	<path d="M234.8,2.4L234.8,2.4l-47.6,0v0h-39.9v0h-44.1h-3.5H56.6h-1H10.9v45.7h44.7v0.2v3.6H10.9v45.7h44.7h1h43.1h3.5h39.9v0h47.6
		v0h40.8v0h47.6V51.9v-3.6V2.4H234.8z M33.7,35.2c-4.2,0-6.8-2-6.8-5.7h2.7c0,2.2,1.5,3.3,4.2,3.3c2.6,0,4.1-1,4.1-2.7
		c0-4.3-10.5-1-10.5-7.3c0-3,2.4-4.9,6.2-4.9s6.5,2,6.5,5.5h-2.5c0-2-1.5-3.1-4-3.1c-2.3,0-3.7,1-3.7,2.4c0,3.9,10.5,0.7,10.5,7.3
		C40.4,33.2,37.9,35.2,33.7,35.2z M40.8,65.6h-5.5v14.3h-2.7V65.6h-5.5v-2.4h13.7V65.6z M99.7,94H59.1v-42h40.6V94z M99.7,48.3H59.1
		V6h40.6V48.3z M143.1,51.9v42h-39.9v-42L143.1,51.9L143.1,51.9z M143.1,48.3h-39.9V6h39.9V48.3z M187.2,94h-39.9v-42h39.9V94z
		 M187.2,48.3L187.2,48.3l-39.9,0v0V6h39.9V48.3z M231.3,94h-40.6v-42v0h40.6V94z M231.3,48.3h-40.6V6h40.6V48.3z M275.6,94H235v-42
		h40.6V94z M275.6,48.3H235V6h40.6V48.3z"/>
</g>
<g id="Layer_2">
</g>
</svg>
